<svg width="16" height="16" viewBox="0 0 16 16" fill="none" xmlns="http://www.w3.org/2000/svg">
<path d="M5.33333 0C4.59635 0 4 0.650568 4 1.45455V14.5455C4 15.3494 4.59635 16 5.33333 16H14.6667C15.4036 16 16 15.3494 16 14.5455V4.24783C16 3.85454 15.8526 3.47553 15.5868 3.18562L12.9003 0.254874C12.7514 0.0924677 12.5412 0 12.3209 0H5.33333Z" fill="#F97316"/>
<path d="M12 1.23171C12 1.05251 12.2202 0.966835 12.3413 1.09894L13.6667 2.54474L15.0315 4.03365C15.147 4.15969 15.0576 4.36293 14.8867 4.36293H12.786C12.3519 4.36293 12 4.01103 12 3.57694V1.23171Z" fill="#FFEDD5"/>
<rect y="6.66602" width="13.3333" height="7" rx="1.33333" fill="#C2410C"/>
<path d="M1.96472 11.666V8.23627H3.31786C3.57799 8.23627 3.79961 8.28596 3.98271 8.38532C4.1658 8.48357 4.30536 8.62033 4.40138 8.79562C4.49851 8.96978 4.54707 9.17074 4.54707 9.3985C4.54707 9.62626 4.49795 9.82722 4.3997 10.0014C4.30145 10.1756 4.15911 10.3112 3.97266 10.4083C3.78733 10.5055 3.56292 10.554 3.29944 10.554H2.43698V9.97292H3.18221C3.32177 9.97292 3.43676 9.94891 3.52719 9.9009C3.61874 9.85178 3.68685 9.78424 3.7315 9.69827C3.77728 9.61119 3.80017 9.51126 3.80017 9.3985C3.80017 9.28462 3.77728 9.18526 3.7315 9.10041C3.68685 9.01444 3.61874 8.94801 3.52719 8.90112C3.43564 8.85311 3.31953 8.82911 3.17886 8.82911H2.68985V11.666H1.96472ZM5.01808 11.666V8.23627H6.37122C6.63135 8.23627 6.85297 8.28596 7.03606 8.38532C7.21916 8.48357 7.35872 8.62033 7.45473 8.79562C7.55187 8.96978 7.60043 9.17074 7.60043 9.3985C7.60043 9.62626 7.55131 9.82722 7.45306 10.0014C7.35481 10.1756 7.21246 10.3112 7.02602 10.4083C6.84068 10.5055 6.61628 10.554 6.3528 10.554H5.49034V9.97292H6.23557C6.37512 9.97292 6.49012 9.94891 6.58055 9.9009C6.6721 9.85178 6.7402 9.78424 6.78486 9.69827C6.83064 9.61119 6.85352 9.51126 6.85352 9.3985C6.85352 9.28462 6.83064 9.18526 6.78486 9.10041C6.7402 9.01444 6.6721 8.94801 6.58055 8.90112C6.489 8.85311 6.37289 8.82911 6.23222 8.82911H5.74321V11.666H5.01808ZM7.94081 8.83413V8.23627H10.7576V8.83413H9.70759V11.666H8.99083V8.83413H7.94081Z" fill="white"/>
</svg>
