<svg width="16" height="16" viewBox="0 0 16 16" fill="none" xmlns="http://www.w3.org/2000/svg">
<path d="M5.33333 0C4.59635 0 4 0.650568 4 1.45455V14.5455C4 15.3494 4.59635 16 5.33333 16H14.6667C15.4036 16 16 15.3494 16 14.5455V4.24783C16 3.85454 15.8526 3.47553 15.5868 3.18562L12.9003 0.254874C12.7514 0.0924677 12.5412 0 12.3209 0H5.33333Z" fill="#EF4444"/>
<path d="M12 1.23171C12 1.05251 12.2202 0.966835 12.3413 1.09894L13.6667 2.54474L15.0315 4.03365C15.147 4.15969 15.0576 4.36293 14.8867 4.36293H12.786C12.3519 4.36293 12 4.01103 12 3.57694V1.23171Z" fill="#FEE2E2"/>
<rect y="6.66602" width="13.3333" height="7" rx="1.33333" fill="#991B1B"/>
<path d="M1.96472 11.666V8.23627H3.31786C3.57799 8.23627 3.79961 8.28596 3.98271 8.38532C4.1658 8.48357 4.30536 8.62033 4.40138 8.79562C4.49851 8.96978 4.54707 9.17074 4.54707 9.3985C4.54707 9.62626 4.49795 9.82722 4.3997 10.0014C4.30145 10.1756 4.15911 10.3112 3.97266 10.4083C3.78733 10.5055 3.56292 10.554 3.29944 10.554H2.43698V9.97292H3.18221C3.32177 9.97292 3.43676 9.94891 3.52719 9.9009C3.61874 9.85178 3.68685 9.78424 3.7315 9.69827C3.77728 9.61119 3.80017 9.51126 3.80017 9.3985C3.80017 9.28462 3.77728 9.18526 3.7315 9.10041C3.68685 9.01444 3.61874 8.94801 3.52719 8.90112C3.43564 8.85311 3.31953 8.82911 3.17886 8.82911H2.68985V11.666H1.96472ZM6.23389 11.666H5.01808V8.23627H6.24394C6.58892 8.23627 6.8859 8.30494 7.13487 8.44226C7.38384 8.57847 7.57531 8.7744 7.70928 9.03007C7.84438 9.28574 7.91192 9.59165 7.91192 9.9478C7.91192 10.3051 7.84438 10.6121 7.70928 10.8689C7.57531 11.1257 7.38272 11.3227 7.13152 11.46C6.88144 11.5974 6.58223 11.666 6.23389 11.666ZM5.74321 11.0447H6.20375C6.41811 11.0447 6.59841 11.0068 6.74467 10.9308C6.89204 10.8538 7.00257 10.7349 7.07626 10.5741C7.15106 10.4122 7.18846 10.2035 7.18846 9.9478C7.18846 9.69436 7.15106 9.48726 7.07626 9.32649C7.00257 9.16572 6.8926 9.04738 6.74634 8.97146C6.60009 8.89554 6.41978 8.85758 6.20542 8.85758H5.74321V11.0447ZM8.44907 11.666V8.23627H10.7199V8.83413H9.17421V9.65138H10.5692V10.2492H9.17421V11.666H8.44907Z" fill="white"/>
</svg>
