<svg width="16" height="16" viewBox="0 0 16 16" fill="none" xmlns="http://www.w3.org/2000/svg">
<path d="M5.33333 0C4.59635 0 4 0.650568 4 1.45455V14.5455C4 15.3494 4.59635 16 5.33333 16H14.6667C15.4036 16 16 15.3494 16 14.5455V4.24783C16 3.85454 15.8526 3.47553 15.5868 3.18562L12.9003 0.254874C12.7514 0.0924677 12.5412 0 12.3209 0H5.33333Z" fill="#3B82F6"/>
<path d="M12 1.23171C12 1.05251 12.2202 0.966835 12.3413 1.09894L13.6667 2.54474L15.0315 4.03365C15.147 4.15969 15.0576 4.36293 14.8867 4.36293H12.786C12.3519 4.36293 12 4.01103 12 3.57694V1.23171Z" fill="#DBEAFE"/>
<rect y="6.66602" width="13.3333" height="7" rx="1.33333" fill="#1E3A8A"/>
<path d="M2.68054 11.666H1.46472V8.23627H2.69058C3.03557 8.23627 3.33254 8.30494 3.58151 8.44226C3.83048 8.57847 4.02195 8.7744 4.15593 9.03007C4.29102 9.28574 4.35856 9.59165 4.35856 9.9478C4.35856 10.3051 4.29102 10.6121 4.15593 10.8689C4.02195 11.1257 3.82936 11.3227 3.57816 11.46C3.32808 11.5974 3.02887 11.666 2.68054 11.666ZM2.18985 11.0447H2.65039C2.86475 11.0447 3.04506 11.0068 3.19131 10.9308C3.33868 10.8538 3.44921 10.7349 3.5229 10.5741C3.5977 10.4122 3.6351 10.2035 3.6351 9.9478C3.6351 9.69436 3.5977 9.48726 3.5229 9.32649C3.44921 9.16572 3.33924 9.04738 3.19299 8.97146C3.04673 8.89554 2.86642 8.85758 2.65207 8.85758H2.18985V11.0447ZM8.04746 9.95114C8.04746 10.3252 7.97657 10.6433 7.83478 10.9057C7.6941 11.1681 7.50207 11.3685 7.25869 11.5069C7.01642 11.6442 6.744 11.7129 6.44144 11.7129C6.13665 11.7129 5.86312 11.6437 5.62085 11.5052C5.37858 11.3668 5.18711 11.1664 5.04644 10.904C4.90576 10.6417 4.83543 10.324 4.83543 9.95114C4.83543 9.57713 4.90576 9.25894 5.04644 8.99658C5.18711 8.73421 5.37858 8.53437 5.62085 8.39704C5.86312 8.2586 6.13665 8.18938 6.44144 8.18938C6.744 8.18938 7.01642 8.2586 7.25869 8.39704C7.50207 8.53437 7.6941 8.73421 7.83478 8.99658C7.97657 9.25894 8.04746 9.57713 8.04746 9.95114ZM7.31228 9.95114C7.31228 9.70887 7.27599 9.50456 7.20342 9.33821C7.13197 9.17186 7.03093 9.0457 6.90031 8.95974C6.76968 8.87377 6.61673 8.83078 6.44144 8.83078C6.26616 8.83078 6.11321 8.87377 5.98258 8.95974C5.85196 9.0457 5.75036 9.17186 5.67779 9.33821C5.60634 9.50456 5.57061 9.70887 5.57061 9.95114C5.57061 10.1934 5.60634 10.3977 5.67779 10.5641C5.75036 10.7304 5.85196 10.8566 5.98258 10.9426C6.11321 11.0285 6.26616 11.0715 6.44144 11.0715C6.61673 11.0715 6.76968 11.0285 6.90031 10.9426C7.03093 10.8566 7.13197 10.7304 7.20342 10.5641C7.27599 10.3977 7.31228 10.1934 7.31228 9.95114ZM11.6108 9.43702H10.8772C10.8639 9.34212 10.8365 9.25783 10.7952 9.18414C10.7539 9.10934 10.7009 9.0457 10.6361 8.99323C10.5713 8.94076 10.4965 8.90056 10.4117 8.87265C10.328 8.84474 10.237 8.83078 10.1387 8.83078C9.9612 8.83078 9.80657 8.87488 9.67483 8.96308C9.54309 9.05017 9.44093 9.17744 9.36836 9.34491C9.29579 9.51126 9.25951 9.71334 9.25951 9.95114C9.25951 10.1956 9.29579 10.4011 9.36836 10.5674C9.44205 10.7338 9.54476 10.8594 9.67651 10.9442C9.80825 11.0291 9.96064 11.0715 10.1337 11.0715C10.2308 11.0715 10.3207 11.0587 10.4033 11.033C10.487 11.0073 10.5613 10.9699 10.626 10.9208C10.6908 10.8705 10.7444 10.8097 10.7868 10.7382C10.8304 10.6668 10.8605 10.5853 10.8772 10.4937L11.6108 10.4971C11.5918 10.6545 11.5443 10.8063 11.4684 10.9526C11.3936 11.0977 11.2926 11.2278 11.1653 11.3428C11.0391 11.4567 10.8884 11.5471 10.7131 11.6141C10.539 11.68 10.3419 11.7129 10.122 11.7129C9.81606 11.7129 9.54253 11.6437 9.30138 11.5052C9.06134 11.3668 8.87154 11.1664 8.73199 10.904C8.59355 10.6417 8.52433 10.324 8.52433 9.95114C8.52433 9.57713 8.59466 9.25894 8.73534 8.99658C8.87601 8.73421 9.06692 8.53437 9.30808 8.39704C9.54923 8.2586 9.82053 8.18938 10.122 8.18938C10.3207 8.18938 10.5049 8.21729 10.6746 8.27312C10.8454 8.32894 10.9967 8.41044 11.1285 8.51762C11.2602 8.62368 11.3674 8.75375 11.45 8.90782C11.5337 9.06189 11.5873 9.23829 11.6108 9.43702Z" fill="white"/>
</svg>
