<svg width="17" height="16" viewBox="0 0 17 16" fill="none" xmlns="http://www.w3.org/2000/svg">
<path d="M5.83333 0C5.09635 0 4.5 0.650568 4.5 1.45455V14.5455C4.5 15.3494 5.09635 16 5.83333 16H15.1667C15.9036 16 16.5 15.3494 16.5 14.5455V4.24783C16.5 3.85454 16.3526 3.47553 16.0868 3.18562L13.4003 0.254874C13.2514 0.0924677 13.0412 0 12.8209 0H5.83333Z" fill="#22C55E"/>
<path d="M12.5 1.23171C12.5 1.05251 12.7202 0.966835 12.8413 1.09894L14.1667 2.54474L15.5315 4.03365C15.647 4.15969 15.5576 4.36293 15.3867 4.36293H13.286C12.8519 4.36293 12.5 4.01103 12.5 3.57694V1.23171Z" fill="#DCFCE7"/>
<rect x="0.5" y="6.66602" width="13.3333" height="7" rx="1.33333" fill="#15803D"/>
<path d="M3.1447 8.23627L3.83634 9.4052H3.86314L4.55813 8.23627H5.37705L4.33037 9.95114L5.40049 11.666H4.5665L3.86314 10.4954H3.83634L3.13298 11.666H2.30234L3.3758 9.95114L2.32243 8.23627H3.1447ZM5.83591 11.666V8.23627H6.56104V11.0682H8.03141V11.666H5.83591ZM10.3722 9.22266C10.3588 9.08757 10.3013 8.98262 10.1997 8.90782C10.0981 8.83302 9.96022 8.79562 9.78606 8.79562C9.66771 8.79562 9.56779 8.81236 9.48629 8.84586C9.40479 8.87823 9.34227 8.92345 9.29872 8.98151C9.2563 9.03956 9.23509 9.10543 9.23509 9.17912C9.23285 9.24052 9.24569 9.29411 9.2736 9.33989C9.30263 9.38566 9.34227 9.4253 9.39251 9.45879C9.44275 9.49117 9.5008 9.51964 9.56667 9.5442C9.63254 9.56764 9.70288 9.58774 9.77768 9.60449L10.0858 9.67817C10.2354 9.71167 10.3728 9.75632 10.4978 9.81215C10.6228 9.86797 10.7311 9.93663 10.8227 10.0181C10.9142 10.0996 10.9851 10.1956 11.0354 10.3062C11.0867 10.4167 11.113 10.5434 11.1141 10.6863C11.113 10.8962 11.0594 11.0782 10.9533 11.2323C10.8484 11.3852 10.6965 11.5041 10.4978 11.589C10.3002 11.6727 10.0618 11.7146 9.78271 11.7146C9.50583 11.7146 9.26467 11.6722 9.05925 11.5873C8.85493 11.5025 8.69528 11.3769 8.58029 11.2105C8.46641 11.043 8.40668 10.8359 8.4011 10.5892H9.10279C9.1106 10.7042 9.14354 10.8002 9.20159 10.8772C9.26076 10.9532 9.33947 11.0107 9.43772 11.0497C9.53709 11.0877 9.64929 11.1067 9.77433 11.1067C9.89714 11.1067 10.0038 11.0888 10.0942 11.0531C10.1857 11.0174 10.2566 10.9677 10.3069 10.904C10.3571 10.8404 10.3822 10.7673 10.3822 10.6847C10.3822 10.6076 10.3594 10.5429 10.3136 10.4904C10.2689 10.4379 10.2031 10.3933 10.116 10.3564C10.03 10.3196 9.9245 10.2861 9.79945 10.2559L9.426 10.1622C9.13684 10.0918 8.90852 9.98185 8.74106 9.83224C8.57359 9.68264 8.49041 9.48112 8.49153 9.22768C8.49041 9.02002 8.54568 8.8386 8.65732 8.68341C8.77008 8.52823 8.92471 8.40709 9.12121 8.32001C9.3177 8.23292 9.54099 8.18938 9.79108 8.18938C10.0456 8.18938 10.2678 8.23292 10.4576 8.32001C10.6485 8.40709 10.797 8.52823 10.9031 8.68341C11.0091 8.8386 11.0638 9.01835 11.0672 9.22266H10.3722Z" fill="white"/>
</svg>
